<svg
          width="31"
          height="30"
          viewBox="0 0 30 25"
          xmlns="http://www.w3.org/2000/svg"
        >
          <g fill="#FFF" fill-rule="nonzero">
            <path
              d="M37.709 17.613c2.593 0 4.473-2 4.473-5.206 0-3.206-1.88-5.205-4.473-5.205s-4.474 1.999-4.474 5.205c0 3.207 1.88 5.206 4.474 5.206Zm0-1.148c-1.841 0-3.286-1.425-3.286-4.058 0-2.632 1.445-4.057 3.286-4.057 1.84 0 3.285 1.425 3.285 4.057 0 2.633-1.445 4.058-3.285 4.058Zm7.54 3.86v-4.019h.1c.257.416.752 1.327 2.217 1.327 1.9 0 3.226-1.524 3.226-3.94 0-2.394-1.326-3.918-3.246-3.918-1.485 0-1.94.91-2.197 1.306h-.139V9.874h-1.128v10.45h1.168Zm2.158-3.741c-1.405 0-2.177-1.188-2.177-2.91 0-1.702.752-2.85 2.177-2.85 1.485 0 2.217 1.247 2.217 2.85 0 1.623-.752 2.91-2.217 2.91Zm8.353 1.049c1.544 0 2.672-.772 3.028-1.92l-1.128-.317c-.297.792-.985 1.188-1.9 1.188-1.37 0-2.316-.886-2.37-2.514h5.517v-.495c0-2.83-1.682-3.8-3.266-3.8-2.058 0-3.424 1.623-3.424 3.958 0 2.336 1.346 3.9 3.543 3.9Zm1.96-4.573h-4.33c.079-1.182.915-2.236 2.251-2.236 1.267 0 2.079.95 2.079 2.236Zm4.136 4.414v-4.572c0-1.326.822-2.078 1.94-2.078 1.084 0 1.742.707 1.742 1.9v4.75h1.168v-4.83c0-1.939-1.034-2.87-2.573-2.87-1.148 0-1.861.515-2.217 1.287h-.1V9.874H60.69v7.6h1.167Zm12.292 0v-4.532h5.404v4.532h1.227V7.34h-1.227v4.513h-5.404V7.34h-1.227v10.134h1.227Zm12.113.159c1.544 0 2.673-.772 3.029-1.92l-1.128-.317c-.297.792-.985 1.188-1.9 1.188-1.371 0-2.316-.886-2.37-2.514h5.517v-.495c0-2.83-1.683-3.8-3.266-3.8-2.059 0-3.425 1.623-3.425 3.958 0 2.336 1.346 3.9 3.543 3.9Zm1.96-4.573h-4.33c.08-1.182.916-2.236 2.252-2.236 1.266 0 2.078.95 2.078 2.236Zm5.206 4.592c1.326 0 2.019-.712 2.256-1.207h.06v1.03h1.167v-5.008c0-2.415-1.84-2.692-2.81-2.692-1.148 0-2.455.396-3.049 1.781l1.109.396c.257-.554.866-1.148 1.98-1.148 1.073 0 1.602.569 1.602 1.544v.04c0 .563-.574.514-1.96.692-1.41.183-2.948.495-2.948 2.237 0 1.484 1.148 2.335 2.593 2.335Zm.178-1.049c-.93 0-1.604-.415-1.604-1.227 0-.89.812-1.168 1.722-1.286.495-.06 1.821-.198 2.02-.436v1.069c0 .95-.753 1.88-2.138 1.88Zm6.61.871V7.34h-1.167v10.134h1.168Zm4.711.1c.436 0 .713-.08.871-.14l-.237-1.048c-.1.02-.257.059-.515.059-.514 0-1.01-.158-1.01-1.148v-4.434h1.624v-.99h-1.623v-1.82h-1.168v1.82h-1.148v.99h1.148v4.75c0 1.327 1.069 1.96 2.058 1.96Zm3.662-.1v-4.572c0-1.326.846-2.078 2-2.078 1.098 0 1.76.692 1.76 1.9v4.75h1.169v-4.83c0-1.954-1.04-2.87-2.593-2.87-1.198 0-1.88.5-2.237 1.287h-.099v-3.72h-1.168v10.133h1.168Zm12.371 0V7.34h-1.227v10.134h1.227Zm3.464 0v-4.75c0-1.113.811-1.9 1.722-1.9.886 0 1.504.579 1.504 1.445v5.205h1.188v-4.948c0-.98.613-1.702 1.682-1.702.831 0 1.544.44 1.544 1.563v5.087h1.168v-5.087c0-1.786-.96-2.612-2.316-2.612-1.089 0-1.885.5-2.276 1.286h-.08c-.375-.811-1.039-1.286-2.038-1.286-.99 0-1.722.475-2.039 1.286h-.099V9.874h-1.128v7.6h1.168Zm13.182.178c1.326 0 2.019-.712 2.257-1.207h.059v1.03h1.168v-5.008c0-2.415-1.841-2.692-2.81-2.692-1.149 0-2.455.396-3.05 1.781l1.11.396c.257-.554.865-1.148 1.979-1.148 1.073 0 1.603.569 1.603 1.544v.04c0 .563-.574.514-1.96.692-1.41.183-2.949.495-2.949 2.237 0 1.484 1.148 2.335 2.593 2.335Zm.178-1.049c-.93 0-1.603-.415-1.603-1.227 0-.89.812-1.168 1.722-1.286.495-.06 1.821-.198 2.019-.436v1.069c0 .95-.752 1.88-2.138 1.88Zm8.511 3.88c1.821 0 3.286-.831 3.286-2.791V9.874h-1.128v1.207h-.119c-.257-.396-.732-1.306-2.217-1.306-1.92 0-3.246 1.524-3.246 3.86 0 2.375 1.386 3.72 3.226 3.72 1.485 0 1.96-.87 2.217-1.286h.1v1.544c0 1.267-.891 1.84-2.119 1.84-1.38 0-1.865-.727-2.177-1.147l-.93.653c.475.796 1.41 1.524 3.107 1.524Zm-.04-4.177c-1.464 0-2.216-1.108-2.216-2.691 0-1.544.732-2.791 2.217-2.791 1.425 0 2.177 1.148 2.177 2.79 0 1.683-.772 2.692-2.177 2.692Zm6.058-7.7c.455 0 .83-.355.83-.79 0-.436-.375-.793-.83-.793-.456 0-.832.357-.832.792 0 .436.376.792.832.792Zm.574 8.868v-7.6h-1.168v7.6h1.168Zm3.305 0v-4.572c0-1.326.821-2.078 1.94-2.078 1.083 0 1.742.707 1.742 1.9v4.75h1.167v-4.83c0-1.939-1.034-2.87-2.573-2.87-1.148 0-1.86.515-2.217 1.287h-.099V9.874h-1.128v7.6h1.168Zm10.055 3.009c1.82 0 3.286-.831 3.286-2.791V9.874h-1.129v1.207h-.118c-.258-.396-.733-1.306-2.217-1.306-1.92 0-3.246 1.524-3.246 3.86 0 2.375 1.385 3.72 3.226 3.72 1.485 0 1.96-.87 2.217-1.286h.099v1.544c0 1.267-.89 1.84-2.118 1.84-1.38 0-1.866-.727-2.177-1.147l-.93.653c.474.796 1.41 1.524 3.107 1.524Zm-.04-4.177c-1.464 0-2.216-1.108-2.216-2.691 0-1.544.732-2.791 2.216-2.791 1.425 0 2.178 1.148 2.178 2.79 0 1.683-.772 2.692-2.178 2.692Zm10.768 1.168v-4.532h4.394v-1.089h-4.394V8.429h4.85V7.34h-6.077v10.134h1.227Zm9.877.159c2.058 0 3.444-1.564 3.444-3.92 0-2.375-1.386-3.938-3.444-3.938-2.059 0-3.444 1.563-3.444 3.939 0 2.355 1.385 3.919 3.444 3.919Zm0-1.05c-1.564 0-2.276-1.345-2.276-2.87 0-1.524.712-2.89 2.276-2.89 1.563 0 2.276 1.366 2.276 2.89 0 1.525-.713 2.87-2.276 2.87Zm7.68.99c1.148 0 1.9-.613 2.256-1.385h.08v1.286h1.167v-7.6h-1.168v4.493c0 1.425-1.089 2.078-1.96 2.078-.97 0-1.662-.713-1.662-1.821v-4.75h-1.168v4.83c0 1.939 1.03 2.87 2.455 2.87Zm6.808-.099v-4.572c0-1.326.822-2.078 1.94-2.078 1.084 0 1.742.707 1.742 1.9v4.75h1.168v-4.83c0-1.939-1.034-2.87-2.573-2.87-1.148 0-1.86.515-2.217 1.287h-.1V9.874h-1.127v7.6h1.167Zm9.857.159c1.465 0 1.96-.91 2.217-1.327h.139v1.168h1.128V7.34h-1.168v3.741h-.099c-.257-.396-.712-1.306-2.197-1.306-1.92 0-3.246 1.524-3.246 3.919 0 2.415 1.326 3.939 3.226 3.939Zm.159-1.05c-1.465 0-2.217-1.286-2.217-2.91 0-1.602.732-2.85 2.217-2.85 1.425 0 2.177 1.149 2.177 2.85 0 1.723-.772 2.91-2.177 2.91Zm7.858 1.07c1.326 0 2.019-.713 2.256-1.208h.06v1.03h1.167v-5.008c0-2.415-1.84-2.692-2.81-2.692-1.148 0-2.455.396-3.048 1.781l1.108.396c.257-.554.866-1.148 1.98-1.148 1.073 0 1.603.569 1.603 1.544v.04c0 .563-.574.514-1.96.692-1.41.183-2.95.495-2.95 2.237 0 1.484 1.149 2.335 2.594 2.335Zm.178-1.05c-.93 0-1.603-.415-1.603-1.227 0-.89.811-1.168 1.722-1.286.494-.06 1.82-.198 2.019-.436v1.069c0 .95-.753 1.88-2.138 1.88Zm8.016.97c.436 0 .713-.079.871-.138l-.238-1.05c-.098.02-.257.06-.514.06-.515 0-1.01-.158-1.01-1.148v-4.434h1.623v-.99h-1.623v-1.82h-1.167v1.82H224.2v.99h1.148v4.75c0 1.327 1.068 1.96 2.058 1.96Zm3.088-8.966c.455 0 .831-.356.831-.792 0-.435-.376-.792-.831-.792-.455 0-.831.357-.831.792 0 .436.376.792.83.792Zm.574 8.867v-7.6H229.9v7.6h1.168Zm5.225.159c2.059 0 3.444-1.564 3.444-3.92 0-2.375-1.385-3.938-3.444-3.938-2.058 0-3.444 1.563-3.444 3.939 0 2.355 1.386 3.919 3.444 3.919Zm0-1.05c-1.563 0-2.276-1.345-2.276-2.87 0-1.524.713-2.89 2.276-2.89 1.564 0 2.277 1.366 2.277 2.89 0 1.525-.713 2.87-2.277 2.87Zm6.394.891v-4.572c0-1.326.82-2.078 1.94-2.078 1.083 0 1.741.707 1.741 1.9v4.75h1.168v-4.83c0-1.939-1.034-2.87-2.573-2.87-1.148 0-1.86.515-2.217 1.287h-.1V9.874h-1.127v7.6h1.168ZM22.23 0h-4.995a2.77 2.77 0 0 0-2.769 2.77v4.995a2.77 2.77 0 0 0 2.77 2.769h4.995A2.77 2.77 0 0 0 25 7.764V2.77A2.77 2.77 0 0 0 22.23 0Zm-4.995 1.108h4.996c.917 0 1.661.744 1.661 1.661v4.996c0 .917-.744 1.661-1.661 1.661h-4.996a1.662 1.662 0 0 1-1.661-1.661V2.769c0-.917.744-1.661 1.661-1.661ZM8.765 0H3.769A2.77 2.77 0 0 0 1 2.77v4.995a2.77 2.77 0 0 0 2.77 2.769h4.995a2.77 2.77 0 0 0 2.769-2.77V2.77A2.77 2.77 0 0 0 8.764 0ZM3.769 1.108h4.996c.917 0 1.661.744 1.661 1.661v4.996c0 .917-.744 1.661-1.661 1.661H3.769a1.662 1.662 0 0 1-1.661-1.661V2.769c0-.917.744-1.661 1.661-1.661ZM22.23 13.466h-4.995a2.77 2.77 0 0 0-2.769 2.77v4.995A2.77 2.77 0 0 0 17.236 24h4.995A2.77 2.77 0 0 0 25 21.23v-4.995a2.77 2.77 0 0 0-2.77-2.769Zm-4.995 1.108h4.996c.917 0 1.661.744 1.661 1.661v4.996c0 .917-.744 1.661-1.661 1.661h-4.996a1.662 1.662 0 0 1-1.661-1.661v-4.996c0-.917.744-1.661 1.661-1.661ZM8.765 13.466H3.769A2.77 2.77 0 0 0 1 16.236v4.995A2.77 2.77 0 0 0 3.77 24h4.995a2.77 2.77 0 0 0 2.769-2.77v-4.995a2.77 2.77 0 0 0-2.77-2.769Zm-4.996 1.108h4.996c.917 0 1.661.744 1.661 1.661v4.996c0 .917-.744 1.661-1.661 1.661H3.769a1.662 1.662 0 0 1-1.661-1.661v-4.996c0-.917.744-1.661 1.661-1.661Z"
            ></path>
          </g>
        </svg>